# xmcd
#
# Track frame offsets:
#	183
#	17588
#	33943
#	55800
#	68445
#	84525
#	97438
#	116025
#	128285
#	144238
#	156878
#	168400
#	182710
#
# Disc length: 2628 seconds
#
# Revision: 1
# Processed by: cddbd v1.5.2PL0 Copyright (c) Steve Scherf et al.
# Submitted via: audiograbber 1.83.01
#
DISCID=a20a420d
DTITLE=Rebecca Holden - Rebecca Holden
DYEAR=1900
DGENRE=Country
TTITLE0=This Rock
TTITLE1=A man's touch
TTITLE2=Cause you still love me
TTITLE3=The highway runs both ways
TTITLE4=Everytime two fools collide
TTITLE5=True blue avenue
TTITLE6=Old fashioned broken heart
TTITLE7=Phonographic memory
TTITLE8=I wanna get over you
TTITLE9=We feel in love anyway
TTITLE10=The tears are gainin' on me
TTITLE11=Call me a fool
TTITLE12=I'm in love and he's in Dallas
EXTD=
EXTT0=
EXTT1=
EXTT2=
EXTT3=
EXTT4=
EXTT5=
EXTT6=
EXTT7=
EXTT8=
EXTT9=
EXTT10=
EXTT11=
EXTT12=
PLAYORDER=
